<svg id="b" data-name="Ebene 2" xmlns="http://www.w3.org/2000/svg" width="886.16" height="1106.5" viewBox="0 0 886.16 1106.5" class="js-about-smv-logo about-smv-logo"><g id="c" data-name="Ebene 1"><g><rect x="87.08" y="193.25" width="712" height="720" fill="#b8b8b8"></rect> <path d="M0,0V1106.5H886.16V0H0ZM362.37,502.66h20.21v81.85h-20.21v-81.85Zm-61.04,101.17h-21.61l-38.83-101.16h22.12l27.51,71.86,27.57-71.86h22.05l-38.81,101.16Zm71.14,15.17c-6.583,0-11.92-5.337-11.92-11.92s5.337-11.92,11.92-11.92c6.581,.006,11.914,5.339,11.92,11.92,0,6.583-5.337,11.92-11.92,11.92Zm70.77-15.17h-20.21v-81.85h20.21v81.85Zm-10.11-92.49c-6.581-.006-11.914-5.339-11.92-11.92,0-6.583,5.337-11.92,11.92-11.92s11.92,5.337,11.92,11.92-5.337,11.92-11.92,11.92Zm106.39,10.62h-25.54v81.88h-20.62v-81.88h-25.53v-19.3h71.69v19.3Zm82.91,81.83l-27.51-71.86-27.57,71.86h-22.05l38.81-101.17h21.61l38.83,101.17h-22.12Z"></path></g></g></svg>