<svg id="b" data-name="Ebene 2" xmlns="http://www.w3.org/2000/svg" width="219.005" height="292.846" viewBox="0 0 219.005 292.846" class="icon icon-hardware about-toggler about-toggle-element3" data-v-2f048587="" style="opacity: 0;"><g id="c" data-name="Ebene 1" data-v-2f048587=""><g data-v-2f048587=""><polyline points="191.49 94.135 163.877 27.09 147.515 5 105.679 5 105.459 5 63.623 5 47.481 27.09 19.649 94.135" fill="none" stroke="#000" stroke-linejoin="round" stroke-width="8" data-v-2f048587=""></polyline> <line x1="163.877" y1="27.09" x2="47.481" y2="27.09" fill="none" stroke="#000" stroke-linejoin="round" stroke-width="8" data-v-2f048587=""></line> <polyline points="19.649 198.712 47.261 265.757 63.623 287.846 105.459 287.846 105.679 287.846 147.515 287.846 163.658 265.757 191.49 198.712" fill="none" stroke="#000" stroke-linejoin="round" stroke-width="8" data-v-2f048587=""></polyline> <line x1="47.261" y1="265.757" x2="163.658" y2="265.757" fill="none" stroke="#000" stroke-linejoin="round" stroke-width="8" data-v-2f048587=""></line> <circle cx="105.679" cy="146.46" r="100.679" fill="none" stroke="#000" stroke-linejoin="round" stroke-width="8" data-v-2f048587=""></circle> <polyline points="180.219 80.411 197.012 74.668 214.005 104.405 201.646 115.931" fill="none" stroke="#000" stroke-linejoin="round" stroke-width="8" data-v-2f048587=""></polyline> <polyline points="180.219 212.142 197.012 217.885 214.005 188.148 201.646 176.622" fill="none" stroke="#000" stroke-linejoin="round" stroke-width="8" data-v-2f048587=""></polyline> <line x1="72.119" y1="168.126" x2="72.119" y2="146.036" fill="none" stroke="#000" stroke-miterlimit="10" stroke-width="8" class="hardware-line" data-v-2f048587=""></line> <line x1="89.112" y1="168.126" x2="89.112" y2="138.389" fill="none" stroke="#000" stroke-miterlimit="10" stroke-width="8" class="hardware-line" data-v-2f048587=""></line> <line x1="106.104" y1="168.126" x2="106.104" y2="131.592" fill="none" stroke="#000" stroke-miterlimit="10" stroke-width="8" class="hardware-line" data-v-2f048587=""></line> <line x1="123.096" y1="168.126" x2="123.096" y2="123.096" fill="none" stroke="#000" stroke-miterlimit="10" stroke-width="8" class="hardware-line" data-v-2f048587=""></line> <line x1="140.088" y1="168.126" x2="140.088" y2="114.6" fill="none" stroke="#000" stroke-miterlimit="10" stroke-width="8" class="hardware-line" data-v-2f048587=""></line></g></g></svg>