<svg id="b" data-name="Ebene 2" xmlns="http://www.w3.org/2000/svg" width="1323" height="1323" viewBox="0 0 1323 1323" class="about-bugatti-ring" data-v-c99445c6="" style="opacity: 0; transform: scale(2, 2);"><g id="c" data-name="Ebene 1" data-v-c99445c6=""><g data-v-c99445c6=""><g data-v-c99445c6=""><line x1="593.894" y1="13.464" x2="592.849" y2="3.519" fill="none" stroke="#fff" stroke-miterlimit="10" data-v-c99445c6=""></line> <line x1="526.524" y1="24.029" x2="524.445" y2="14.247" fill="none" stroke="#fff" stroke-miterlimit="10" data-v-c99445c6=""></line> <line x1="460.626" y1="41.578" x2="457.536" y2="32.067" fill="none" stroke="#fff" stroke-miterlimit="10" data-v-c99445c6=""></line> <line x1="396.925" y1="65.918" x2="392.857" y2="56.783" fill="none" stroke="#fff" stroke-miterlimit="10" data-v-c99445c6=""></line> <line x1="278.867" y1="133.838" x2="272.989" y2="125.747" fill="none" stroke="#fff" stroke-miterlimit="10" data-v-c99445c6=""></line> <line x1="225.805" y1="176.672" x2="219.113" y2="169.241" fill="none" stroke="#fff" stroke-miterlimit="10" data-v-c99445c6=""></line> <line x1="177.51" y1="224.818" x2="170.079" y2="218.127" fill="none" stroke="#fff" stroke-miterlimit="10" data-v-c99445c6=""></line> <line x1="134.513" y1="277.749" x2="126.423" y2="271.871" fill="none" stroke="#fff" stroke-miterlimit="10" data-v-c99445c6=""></line> <line x1="66.232" y1="395.598" x2="57.096" y2="391.53" fill="none" stroke="#fff" stroke-miterlimit="10" data-v-c99445c6=""></line> <line x1="41.696" y1="459.224" x2="32.185" y2="456.134" fill="none" stroke="#fff" stroke-miterlimit="10" data-v-c99445c6=""></line> <line x1="23.945" y1="525.067" x2="14.163" y2="522.988" fill="none" stroke="#fff" stroke-miterlimit="10" data-v-c99445c6=""></line> <line x1="13.174" y1="592.405" x2="3.228" y2="591.36" fill="none" stroke="#fff" stroke-miterlimit="10" data-v-c99445c6=""></line> <line x1="12.964" y1="728.606" x2="3.019" y2="729.651" fill="none" stroke="#fff" stroke-miterlimit="10" data-v-c99445c6=""></line> <line x1="23.529" y1="795.976" x2="13.747" y2="798.055" fill="none" stroke="#fff" stroke-miterlimit="10" data-v-c99445c6=""></line> <line x1="41.078" y1="861.874" x2="31.567" y2="864.964" fill="none" stroke="#fff" stroke-miterlimit="10" data-v-c99445c6=""></line> <line x1="65.418" y1="925.575" x2="56.283" y2="929.643" fill="none" stroke="#fff" stroke-miterlimit="10" data-v-c99445c6=""></line> <line x1="133.338" y1="1043.633" x2="125.247" y2="1049.511" fill="none" stroke="#fff" stroke-miterlimit="10" data-v-c99445c6=""></line> <line x1="176.172" y1="1096.695" x2="168.741" y2="1103.387" fill="none" stroke="#fff" stroke-miterlimit="10" data-v-c99445c6=""></line> <line x1="224.318" y1="1144.99" x2="217.627" y2="1152.421" fill="none" stroke="#fff" stroke-miterlimit="10" data-v-c99445c6=""></line> <line x1="277.249" y1="1187.987" x2="271.371" y2="1196.077" fill="none" stroke="#fff" stroke-miterlimit="10" data-v-c99445c6=""></line> <line x1="395.098" y1="1256.268" x2="391.03" y2="1265.404" fill="none" stroke="#fff" stroke-miterlimit="10" data-v-c99445c6=""></line> <line x1="458.724" y1="1280.804" x2="455.634" y2="1290.315" fill="none" stroke="#fff" stroke-miterlimit="10" data-v-c99445c6=""></line> <line x1="524.567" y1="1298.555" x2="522.488" y2="1308.337" fill="none" stroke="#fff" stroke-miterlimit="10" data-v-c99445c6=""></line> <line x1="591.905" y1="1309.326" x2="590.86" y2="1319.272" fill="none" stroke="#fff" stroke-miterlimit="10" data-v-c99445c6=""></line> <line x1="728.106" y1="1309.536" x2="729.151" y2="1319.481" fill="none" stroke="#fff" stroke-miterlimit="10" data-v-c99445c6=""></line> <line x1="795.476" y1="1298.971" x2="797.555" y2="1308.753" fill="none" stroke="#fff" stroke-miterlimit="10" data-v-c99445c6=""></line> <line x1="861.374" y1="1281.422" x2="864.464" y2="1290.933" fill="none" stroke="#fff" stroke-miterlimit="10" data-v-c99445c6=""></line> <line x1="925.075" y1="1257.082" x2="929.143" y2="1266.217" fill="none" stroke="#fff" stroke-miterlimit="10" data-v-c99445c6=""></line> <line x1="1043.133" y1="1189.162" x2="1049.011" y2="1197.253" fill="none" stroke="#fff" stroke-miterlimit="10" data-v-c99445c6=""></line> <line x1="1096.195" y1="1146.328" x2="1102.887" y2="1153.759" fill="none" stroke="#fff" stroke-miterlimit="10" data-v-c99445c6=""></line> <line x1="1144.49" y1="1098.182" x2="1151.921" y2="1104.873" fill="none" stroke="#fff" stroke-miterlimit="10" data-v-c99445c6=""></line> <line x1="1187.487" y1="1045.251" x2="1195.577" y2="1051.129" fill="none" stroke="#fff" stroke-miterlimit="10" data-v-c99445c6=""></line> <line x1="1255.768" y1="927.402" x2="1264.904" y2="931.47" fill="none" stroke="#fff" stroke-miterlimit="10" data-v-c99445c6=""></line> <line x1="1280.304" y1="863.776" x2="1289.815" y2="866.866" fill="none" stroke="#fff" stroke-miterlimit="10" data-v-c99445c6=""></line> <line x1="1298.055" y1="797.933" x2="1307.837" y2="800.012" fill="none" stroke="#fff" stroke-miterlimit="10" data-v-c99445c6=""></line> <line x1="1308.826" y1="730.595" x2="1318.772" y2="731.64" fill="none" stroke="#fff" stroke-miterlimit="10" data-v-c99445c6=""></line> <line x1="1309.036" y1="594.394" x2="1318.981" y2="593.349" fill="none" stroke="#fff" stroke-miterlimit="10" data-v-c99445c6=""></line> <line x1="1298.471" y1="527.024" x2="1308.253" y2="524.945" fill="none" stroke="#fff" stroke-miterlimit="10" data-v-c99445c6=""></line> <line x1="1280.922" y1="461.126" x2="1290.433" y2="458.036" fill="none" stroke="#fff" stroke-miterlimit="10" data-v-c99445c6=""></line> <line x1="1256.582" y1="397.425" x2="1265.717" y2="393.357" fill="none" stroke="#fff" stroke-miterlimit="10" data-v-c99445c6=""></line> <line x1="1188.662" y1="279.367" x2="1196.753" y2="273.489" fill="none" stroke="#fff" stroke-miterlimit="10" data-v-c99445c6=""></line> <line x1="1145.828" y1="226.305" x2="1153.259" y2="219.613" fill="none" stroke="#fff" stroke-miterlimit="10" data-v-c99445c6=""></line> <line x1="1097.682" y1="178.01" x2="1104.373" y2="170.579" fill="none" stroke="#fff" stroke-miterlimit="10" data-v-c99445c6=""></line> <line x1="1044.751" y1="135.013" x2="1050.629" y2="126.923" fill="none" stroke="#fff" stroke-miterlimit="10" data-v-c99445c6=""></line> <line x1="926.902" y1="66.732" x2="930.97" y2="57.596" fill="none" stroke="#fff" stroke-miterlimit="10" data-v-c99445c6=""></line> <line x1="863.276" y1="42.196" x2="866.366" y2="32.685" fill="none" stroke="#fff" stroke-miterlimit="10" data-v-c99445c6=""></line> <line x1="797.433" y1="24.445" x2="799.512" y2="14.663" fill="none" stroke="#fff" stroke-miterlimit="10" data-v-c99445c6=""></line> <line x1="730.095" y1="13.674" x2="731.14" y2="3.728" fill="none" stroke="#fff" stroke-miterlimit="10" data-v-c99445c6=""></line></g> <g data-v-c99445c6=""><line x1="661.5" y1="26" x2="661.5" fill="none" stroke="#fff" stroke-miterlimit="10" stroke-width="2" data-v-c99445c6=""></line> <line x1="343.75" y1="111.141" x2="330.75" y2="88.624" fill="none" stroke="#fff" stroke-miterlimit="10" stroke-width="2" data-v-c99445c6=""></line> <line x1="111.141" y1="343.75" x2="88.624" y2="330.75" fill="none" stroke="#fff" stroke-miterlimit="10" stroke-width="2" data-v-c99445c6=""></line> <line x1="26" y1="661.5" x2="0" y2="661.5" fill="none" stroke="#fff" stroke-miterlimit="10" stroke-width="2" data-v-c99445c6=""></line> <line x1="111.141" y1="979.25" x2="88.624" y2="992.25" fill="none" stroke="#fff" stroke-miterlimit="10" stroke-width="2" data-v-c99445c6=""></line> <line x1="343.75" y1="1211.859" x2="330.75" y2="1234.376" fill="none" stroke="#fff" stroke-miterlimit="10" stroke-width="2" data-v-c99445c6=""></line> <line x1="661.5" y1="1297" x2="661.5" y2="1323" fill="none" stroke="#fff" stroke-miterlimit="10" stroke-width="2" data-v-c99445c6=""></line> <line x1="979.25" y1="1211.859" x2="992.25" y2="1234.376" fill="none" stroke="#fff" stroke-miterlimit="10" stroke-width="2" data-v-c99445c6=""></line> <line x1="1211.859" y1="979.25" x2="1234.376" y2="992.25" fill="none" stroke="#fff" stroke-miterlimit="10" stroke-width="2" data-v-c99445c6=""></line> <line x1="1297" y1="661.5" x2="1323" y2="661.5" fill="none" stroke="#fff" stroke-miterlimit="10" stroke-width="2" data-v-c99445c6=""></line> <line x1="1211.859" y1="343.75" x2="1234.376" y2="330.75" fill="none" stroke="#fff" stroke-miterlimit="10" stroke-width="2" data-v-c99445c6=""></line> <line x1="979.25" y1="111.141" x2="992.25" y2="88.624" fill="none" stroke="#fff" stroke-miterlimit="10" stroke-width="2" data-v-c99445c6=""></line></g></g></g></svg>