<svg id="b" data-name="Ebene 2" xmlns="http://www.w3.org/2000/svg" width="340" height="283" viewBox="0 0 340 283" class="icon icon-software about-toggler about-toggle-element2" data-v-19c086fc="" style="opacity: 0;"><path d="M315.833,10c7.812,0,14.167,6.355,14.167,14.167v234.667c0,7.812-6.355,14.167-14.167,14.167H24.167c-7.812,0-14.167-6.355-14.167-14.167V24.167c0-7.812,6.355-14.167,14.167-14.167H315.833m0-10H24.167C10.82,0,0,10.82,0,24.167v234.667c0,13.347,10.82,24.167,24.167,24.167H315.833c13.347,0,24.167-10.82,24.167-24.167V24.167c0-13.347-10.82-24.167-24.167-24.167h0Z" data-v-19c086fc=""></path> <line x1="8" y1="54" x2="333" y2="54" fill="none" stroke="#000" stroke-miterlimit="10" stroke-width="10" data-v-19c086fc=""></line> <g data-v-19c086fc=""><polyline points="121.749 139.172 85 166.5 121.749 193.828" fill="none" stroke="#000" stroke-linecap="round" stroke-linejoin="round" stroke-width="10" class="ants2" data-v-19c086fc=""></polyline> <polyline points="219.251 193.828 256 166.5 219.251 139.172" fill="none" stroke="#000" stroke-linecap="round" stroke-linejoin="round" stroke-width="10" class="ants2" data-v-19c086fc=""></polyline></g> <line x1="185.24" y1="104.591" x2="155.76" y2="228.409" fill="none" stroke="#000" stroke-linecap="round" stroke-linejoin="round" stroke-width="10" class="ants2" data-v-19c086fc=""></line> <circle cx="260" cy="29" r="7" data-v-19c086fc=""></circle> <circle cx="283" cy="29" r="7" data-v-19c086fc=""></circle> <circle cx="306" cy="29" r="7" data-v-19c086fc=""></circle></svg>